<?xml version="1.0" standalone="no"?>
<!DOCTYPE svg PUBLIC "-//W3C//DTD SVG 20010904//EN"
 "http://www.w3.org/TR/2001/REC-SVG-20010904/DTD/svg10.dtd">
<svg version="1.0" xmlns="http://www.w3.org/2000/svg"
 width="500.000000pt" height="500.000000pt" viewBox="0 0 500.000000 500.000000"
 preserveAspectRatio="xMidYMid meet">
<metadata>
Created by potrace 1.11, written by Peter Selinger 2001-2013
</metadata>
<g transform="translate(0.000000,500.000000) scale(0.100000,-0.100000)"
fill="#000000" stroke="none">
<path d="M0 2500 l0 -2500 2500 0 2500 0 0 2500 0 2500 -2500 0 -2500 0 0
-2500z m3530 2059 c133 -21 245 -98 289 -200 49 -110 45 -256 -9 -365 -46 -95
-122 -151 -242 -179 -66 -15 -269 -20 -390 -8 l-68 6 0 373 0 373 88 4 c196 7
270 6 332 -4z m-1810 -119 l0 -120 -140 0 -140 0 0 -40 0 -40 115 0 115 0 0
-110 0 -110 -115 0 -115 0 0 -105 0 -105 -135 0 -135 0 0 375 0 375 275 0 275
0 0 -120z m360 -255 l0 -375 -135 0 -135 0 0 375 0 375 135 0 135 0 0 -375z
m527 215 l88 -160 3 160 2 160 140 0 140 0 0 -375 0 -376 -156 3 -156 3 -87
157 -86 157 -3 -160 -2 -159 -140 0 -140 0 0 375 0 375 154 0 155 0 88 -160z
m-1442 -929 c61 -27 125 -70 125 -84 0 -8 -93 -165 -116 -196 -2 -1 -28 9 -59
24 -92 45 -169 25 -201 -52 -18 -42 -18 -67 1 -107 33 -68 124 -86 209 -41
l46 25 43 -68 c85 -133 83 -128 62 -152 -29 -32 -134 -78 -205 -89 -135 -22
-279 26 -363 119 -191 212 -106 543 162 632 78 26 226 20 296 -11z m3061 5
c69 -21 129 -67 156 -118 32 -60 32 -185 1 -243 -53 -99 -134 -138 -280 -137
l-73 1 0 -119 0 -120 -140 0 -140 0 0 375 0 374 88 4 c156 7 334 -1 388 -17z
m-2568 -118 l3 -128 84 0 85 0 0 130 0 130 135 0 135 0 0 -375 0 -375 -135 0
-134 0 -3 128 -3 127 -82 3 -83 3 0 -131 0 -130 -140 0 -140 0 0 375 0 376
138 -3 137 -3 3 -127z m1152 22 l0 -110 -150 0 -150 0 0 -25 0 -25 140 0 140
0 0 -105 0 -105 -140 0 -140 0 0 -30 0 -30 160 0 160 0 0 -105 0 -105 -300 0
-300 0 0 368 c0 203 3 372 7 375 3 4 134 7 290 7 l283 0 0 -110z m752 -260
c59 -201 108 -368 108 -372 0 -5 -69 -8 -154 -8 l-155 0 -6 43 c-10 66 -14 68
-86 65 l-64 -3 -10 -50 -11 -50 -156 -3 -155 -2 77 262 c42 145 92 314 110
376 l33 112 181 -2 181 -3 107 -365z m-2795 -706 c66 -21 130 -75 154 -128 22
-47 25 -148 7 -207 -6 -22 -26 -56 -44 -77 l-33 -39 41 -64 c23 -35 63 -99 89
-141 l49 -78 -159 0 -160 0 -63 120 c-35 66 -66 120 -70 120 -5 0 -8 -54 -8
-120 l0 -120 -140 0 -140 0 2 373 3 372 85 6 c143 11 329 3 387 -17z m1466
-12 c34 -17 73 -42 86 -55 l22 -25 -47 -73 c-25 -41 -48 -75 -49 -77 -1 -1
-24 9 -51 23 -58 31 -127 32 -132 2 -3 -13 11 -24 55 -43 161 -71 204 -109
224 -200 18 -79 -1 -135 -66 -200 -64 -65 -128 -88 -240 -87 -95 0 -170 20
-244 65 -81 49 -82 53 -27 141 l47 75 57 -28 c71 -36 130 -46 156 -27 11 8 16
19 12 26 -4 6 -49 31 -99 55 -63 29 -104 56 -129 84 -76 84 -76 194 0 282 63
74 140 101 269 96 79 -3 102 -8 156 -34z m-583 -82 l0 -110 -150 0 -150 0 0
-25 0 -25 140 0 140 0 0 -105 0 -105 -140 0 -140 0 0 -30 0 -30 160 0 160 0 0
-105 0 -105 -300 0 -300 0 0 368 c0 203 3 372 7 375 3 4 134 7 290 7 l283 0 0
-110z m1420 -15 l0 -125 -100 0 -100 0 0 -250 0 -250 -140 0 -140 0 0 250 0
250 -100 0 -100 0 0 125 0 125 340 0 340 0 0 -125z m724 -242 c59 -203 107
-371 106 -376 0 -4 -68 -6 -152 -5 l-152 3 -11 50 -10 50 -70 0 -70 0 -9 -52
-9 -53 -153 0 c-85 0 -154 3 -154 8 0 11 209 722 215 733 4 5 83 9 184 9 l178
0 107 -367z m466 134 c5 -214 6 -230 25 -243 52 -38 107 -25 131 31 11 26 14
83 14 240 l0 205 136 0 135 0 -3 -257 -3 -258 -28 -57 c-58 -118 -176 -189
-317 -191 -140 -1 -254 57 -317 162 -46 77 -53 126 -53 377 l0 225 138 -3 137
-3 5 -228z m319 -829 c0 -18 -8 -132 -17 -253 l-17 -220 -102 -3 c-101 -3
-103 -2 -104 20 0 13 -8 128 -17 256 l-17 232 137 0 138 0 -1 -32z m-3759 -9
c85 -14 138 -38 183 -84 45 -46 61 -92 61 -170 -1 -77 -18 -128 -59 -174 l-32
-36 54 -85 c30 -47 69 -109 87 -138 l32 -53 98 335 c53 184 102 351 108 370
l11 36 181 -2 181 -3 107 -365 c59 -201 108 -368 108 -372 0 -5 -69 -8 -154
-8 l-155 0 -6 43 c-10 66 -14 68 -86 65 l-64 -3 -10 -50 -11 -50 -312 -3 -312
-2 -60 120 c-33 66 -65 120 -70 120 -6 0 -10 -47 -10 -120 l0 -120 -135 0
-135 0 0 375 0 374 88 4 c194 7 250 6 312 -4z m3265 -18 c60 -26 125 -70 125
-83 0 -10 -89 -158 -95 -158 -2 0 -23 11 -46 25 -49 28 -110 33 -129 10 -18
-21 -8 -30 82 -66 174 -70 239 -193 173 -326 -48 -96 -146 -146 -286 -146
-101 1 -173 19 -248 65 -80 49 -81 52 -26 139 26 40 49 75 50 77 2 2 20 -8 42
-22 73 -48 183 -55 183 -12 0 7 -39 31 -87 52 -60 26 -103 54 -134 85 -126
124 -62 314 124 375 64 21 210 13 272 -15z m-1680 -127 c43 -80 85 -153 92
-163 10 -13 12 14 13 147 l0 162 135 0 135 0 0 -375 0 -375 -152 0 -153 0 -80
146 c-44 81 -85 154 -92 163 -10 13 -12 -17 -13 -146 l0 -163 -135 0 -135 0 0
375 0 375 153 0 152 0 80 -146z m1145 21 l0 -125 -100 0 -100 0 0 -250 0 -250
-140 0 -140 0 0 250 0 250 -100 0 -100 0 0 125 0 125 340 0 340 0 0 -125z
m1000 -520 l0 -105 -110 0 -110 0 0 105 0 105 110 0 110 0 0 -105z"/>
<path d="M3390 4179 l0 -151 47 7 c74 11 95 31 118 112 13 46 -6 116 -41 151
-27 27 -39 32 -78 32 l-46 0 0 -151z"/>
<path d="M4030 3235 l0 -55 33 0 c38 0 67 25 67 58 0 31 -27 52 -66 52 l-34 0
0 -55z"/>
<path d="M3262 3150 c-6 -30 -14 -72 -18 -92 l-6 -38 36 0 c20 0 36 3 36 8 -1
4 -9 45 -19 92 l-18 85 -11 -55z"/>
<path d="M570 2175 c0 -52 2 -55 24 -55 38 0 57 11 67 38 15 38 -12 72 -56 72
l-35 0 0 -55z"/>
<path d="M3492 2075 c-7 -38 -16 -80 -19 -92 -5 -21 -2 -23 32 -23 l37 0 -7
38 c-3 20 -12 62 -18 92 l-13 55 -12 -70z"/>
<path d="M690 1105 l0 -55 33 0 c58 0 88 58 49 93 -10 10 -33 17 -50 17 l-32
0 0 -55z"/>
<path d="M1532 1020 c-6 -30 -14 -72 -18 -92 l-6 -38 36 0 c20 0 36 3 36 8 -1
4 -9 45 -19 92 l-18 85 -11 -55z"/>
</g>
</svg>
